<svg xmlns="http://www.w3.org/2000/svg" width="45" height="45" viewBox="0 0 45 45">
  <g id="saved_items" data-name="saved items" transform="translate(-13428 157)">
    <rect id="Rectangle_1327" data-name="Rectangle 1327" width="45" height="45" transform="translate(13428 -157)" fill="none"/>
    <path id="Icon_ionic-ios-heart-empty" data-name="Icon ionic-ios-heart-empty" d="M24.019,3.938h-.068A7.727,7.727,0,0,0,17.5,7.469a7.727,7.727,0,0,0-6.451-3.531h-.068a7.678,7.678,0,0,0-7.606,7.674,16.53,16.53,0,0,0,3.246,9.011C10.709,26.212,17.5,31.1,17.5,31.1s6.791-4.889,10.879-10.478a16.53,16.53,0,0,0,3.246-9.011A7.678,7.678,0,0,0,24.019,3.938ZM26.844,19.5A52.086,52.086,0,0,1,17.5,28.711,52.163,52.163,0,0,1,8.156,19.5a14.65,14.65,0,0,1-2.879-7.884,5.762,5.762,0,0,1,5.718-5.765h.061a5.693,5.693,0,0,1,2.791.733,5.934,5.934,0,0,1,2.064,1.935,1.908,1.908,0,0,0,3.192,0,5.993,5.993,0,0,1,2.064-1.935,5.693,5.693,0,0,1,2.791-.733h.061a5.762,5.762,0,0,1,5.718,5.765A14.836,14.836,0,0,1,26.844,19.5Z" transform="translate(13433.35 -152)" fill="#fff"/>
  </g>
</svg>
