<svg xmlns="http://www.w3.org/2000/svg" width="45" height="45" viewBox="0 0 45 45">
  <g id="my_store" data-name="my store" transform="translate(-13428 157)">
    <rect id="Rectangle_1327" data-name="Rectangle 1327" width="45" height="45" transform="translate(13428 -157)" fill="none"/>
    <g id="mobile-store" transform="translate(13437 -148)">
      <path id="Path_2306" data-name="Path 2306" d="M286.357,288.52h-4.373a.817.817,0,0,0-.816.816v4.41a.817.817,0,0,0,.816.816h4.373a.817.817,0,0,0,.816-.816v-4.41A.817.817,0,0,0,286.357,288.52Zm-.816,4.41H282.8v-2.777h2.74Zm0,0" transform="translate(-265.863 -272.815)" fill="#fff"/>
      <path id="Path_2307" data-name="Path 2307" d="M27.837,6.714,26.689,2.695A3.881,3.881,0,0,0,23.117,0H4.752A3.881,3.881,0,0,0,1.18,2.695L.032,6.714A.816.816,0,0,0,0,6.939V9.562a3.445,3.445,0,0,0,2.186,3.2V23.117a3.006,3.006,0,0,0,3,3H22.68a3.006,3.006,0,0,0,3-3V12.764a3.445,3.445,0,0,0,2.186-3.2V6.939a.816.816,0,0,0-.031-.224ZM2.751,3.143a2.269,2.269,0,0,1,2-1.51H23.117a2.269,2.269,0,0,1,2,1.51l.851,2.979H1.9ZM6.88,7.755h3.614V9.562a1.807,1.807,0,1,1-3.614,0Zm5.247,0h3.614V9.562a1.807,1.807,0,1,1-3.614,0Zm5.247,0h3.614V9.562a1.807,1.807,0,1,1-3.614,0ZM1.633,9.562V7.755H5.248V9.562a1.807,1.807,0,1,1-3.614,0ZM8.192,24.487V19.561h2.74v4.926Zm14.488,0H12.565V18.744a.817.817,0,0,0-.816-.816H7.376a.817.817,0,0,0-.816.816v5.742H5.19a1.371,1.371,0,0,1-1.37-1.37V12.981a3.436,3.436,0,0,0,2.244-1.2,3.434,3.434,0,0,0,5.247,0,3.434,3.434,0,0,0,5.247,0,3.434,3.434,0,0,0,5.247,0,3.437,3.437,0,0,0,2.244,1.2V23.117a1.371,1.371,0,0,1-1.37,1.37Zm1.749-13.118a1.809,1.809,0,0,1-1.807-1.807V7.755h3.614V9.562a1.809,1.809,0,0,1-1.807,1.807Zm0,0" fill="#fff"/>
    </g>
  </g>
</svg>
