<svg xmlns="http://www.w3.org/2000/svg" width="45" height="45" viewBox="0 0 45 45">
  <g id="products" transform="translate(-13428 157)">
    <rect id="Rectangle_1327" data-name="Rectangle 1327" width="45" height="45" transform="translate(13428 -157)" fill="none"/>
    <g id="grocery" transform="translate(13438 -148.158)">
      <path id="Path_2315" data-name="Path 2315" d="M367.84,69.8l.87-.283.893,2.745-.87.283Zm0,0" transform="translate(-346.807 -65.545)" fill="#fff" stroke="#fff" stroke-width="0.5"/>
      <path id="Path_2316" data-name="Path 2316" d="M344.391,125.81l.87-.283.894,2.744-.87.283Zm0,0" transform="translate(-324.698 -118.35)" fill="#fff" stroke="#fff" stroke-width="0.5"/>
      <path id="Path_2317" data-name="Path 2317" d="M51.953,8.794a2.493,2.493,0,0,0,.562,1.946l.66.828v7.643h.915V12.29l.661.44a.458.458,0,0,0,.508,0l1.118-.746,1.118.746a.458.458,0,0,0,.508,0l1.118-.746,1.118.746a.458.458,0,0,0,.508,0l1.118-.746,1.118.746a.458.458,0,0,0,.508,0l1.118-.746.915.61V26.531H55.463v.915H68.271a2.29,2.29,0,0,0,2.287-2.287V11.435a.454.454,0,0,0-.1-.277L73.1,4.121a3.081,3.081,0,0,0-.348-2.836A2.923,2.923,0,0,0,70.326,0a3,3,0,0,0-2.779,1.949L66.83,3.858l-.846-.846V1.371a.457.457,0,0,0-.457-.457H60.494a.457.457,0,0,0-.457.457v.785a1.429,1.429,0,0,0-1.845-.063V1.371a1.356,1.356,0,0,0-2.712,0v.723a1.4,1.4,0,0,0-1.893.1,1.449,1.449,0,0,0-.008,2.01l.426.44a1.4,1.4,0,0,0-.415.291l0,0,0,0a1.409,1.409,0,0,0-.261.373L52.8,4.354,52,4.79l1.183,2.183c-.053.03-.106.059-.156.094-.019.013-.035.027-.054.04L51.2,5.476l-.62.673L52.336,7.77a2.5,2.5,0,0,0-.383,1.024Zm9.66,2.26-1.118.746-1.118-.746a.458.458,0,0,0-.508,0l-1.108.739c0-.046-.01-.086-.01-.13a2.053,2.053,0,0,1,4-.668.462.462,0,0,0-.133.058Zm1.169.441-.009-.006a2.969,2.969,0,0,0-4.108-2.57V5.946h4.117Zm6.862,13.663a1.372,1.372,0,0,1-1.372,1.372h-1.83V12.595l.915-.611,1.118.746a.458.458,0,0,0,.508,0l.661-.44ZM68.4,2.27A2.076,2.076,0,0,1,70.326.914,2.02,2.02,0,0,1,72,1.8a2.167,2.167,0,0,1,.244,2l-2.832,7.544-.686.457-1.118-.746a.458.458,0,0,0-.508,0l-1.118.746-.928-.619ZM66.477,4.8,64.049,11.26,63.7,11.5V5.678l1.83-1.83ZM60.952,1.829h4.117v.915H60.952Zm-.268,1.83h3.738L63.05,5.031H59.312ZM54.24,2.838a.487.487,0,0,1,.7,0l.672.686A.457.457,0,0,0,56.4,3.2V1.371a.441.441,0,1,1,.882,0V3.2a.458.458,0,0,0,.784.32l.674-.686a.5.5,0,0,1,.7,0,.523.523,0,0,1,0,.732L58.082,4.939l.014.014-.212.212a.454.454,0,0,0-.088.13c-.006.014-.01.028-.015.043a.458.458,0,0,0-.025.121c0,.01-.006.018-.006.028V9.523a2.932,2.932,0,0,0-.289.32L56.6,8a2.47,2.47,0,0,0-1.583-1.281,2.411,2.411,0,0,0-.489-.074l-.117-.137c-.091-.1-.16-.187-.172-.2a.53.53,0,0,1-.137-.465.508.508,0,0,1,.127-.255l.008-.008.011-.012a.49.49,0,0,1,.615-.058.457.457,0,0,0,.585-.7L54.237,3.571a.528.528,0,0,1,0-.733ZM52.86,8.919a1.574,1.574,0,0,1,.675-1.092,1.543,1.543,0,0,1,2.241.581l1.166,2.484a2.93,2.93,0,0,0-.068.325l-.241-.161a.457.457,0,0,0-.508,0l-1.12.745-1.015-.677-.1-.123,1.179-.912-.56-.724-1.189.92-.1-.127a1.584,1.584,0,0,1-.361-1.24Zm0,0" transform="translate(-47.686 0)" fill="#fff" stroke="#fff" stroke-width="0.5"/>
      <path id="Path_2318" data-name="Path 2318" d="M.977,328.008a2.053,2.053,0,0,0,1.846,1.141,2.079,2.079,0,0,0,.923-.218l.371-.186.371.186a2.077,2.077,0,0,0,.923.218,2.053,2.053,0,0,0,1.846-1.141l.159-.32a7.782,7.782,0,0,0,.817-3.46,2.389,2.389,0,0,0-3.66-2.033v-.366A1.83,1.83,0,0,0,2.745,320v.915a.915.915,0,0,1,.915.915v.366A2.389,2.389,0,0,0,0,324.228a7.78,7.78,0,0,0,.817,3.461ZM2.4,322.745a1.473,1.473,0,0,1,1.049.435l.346.346a.458.458,0,0,0,.647,0l.346-.346a1.483,1.483,0,0,1,2.532,1.049A6.852,6.852,0,0,1,6.6,327.28l-.159.32a1.144,1.144,0,0,1-1.028.634,1.156,1.156,0,0,1-.514-.121l-.576-.288a.458.458,0,0,0-.409,0l-.576.288a1.157,1.157,0,0,1-.514.121,1.144,1.144,0,0,1-1.028-.635l-.159-.32a6.853,6.853,0,0,1-.721-3.05A1.486,1.486,0,0,1,2.4,322.745Zm0,0" transform="translate(0 -301.703)" fill="#fff" stroke="#fff" stroke-width="0.5"/>
    </g>
  </g>
</svg>
