<svg xmlns="http://www.w3.org/2000/svg" width="45" height="45" viewBox="0 0 45 45">
  <g id="cart" transform="translate(-13428 157)">
    <rect id="Rectangle_1327" data-name="Rectangle 1327" width="45" height="45" transform="translate(13428 -157)" fill="none"/>
    <g id="shopping-cart" transform="translate(13436.198 -148.181)">
      <path id="Path_2308" data-name="Path 2308" d="M109.2,327.883a3.09,3.09,0,1,0,3.091,3.09A3.091,3.091,0,0,0,109.2,327.883Zm0,4.839a1.748,1.748,0,1,1,1.749-1.749A1.749,1.749,0,0,1,109.2,332.722Zm0,0" transform="translate(-98.993 -305.883)" fill="#fff" stroke="#fff" stroke-width="0.5"/>
      <path id="Path_2309" data-name="Path 2309" d="M290.481,327.883a3.09,3.09,0,1,0,3.09,3.09A3.09,3.09,0,0,0,290.481,327.883Zm0,4.839a1.748,1.748,0,1,1,1.748-1.749A1.748,1.748,0,0,1,290.481,332.722Zm0,0" transform="translate(-268.106 -305.883)" fill="#fff" stroke="#fff" stroke-width="0.5"/>
      <path id="Path_2310" data-name="Path 2310" d="M27.395,5.48H6.355L5.9,2.793A3.346,3.346,0,0,0,2.591,0H.672a.671.671,0,1,0,0,1.342H2.591A2.008,2.008,0,0,1,4.576,3.018L7.005,17.331a3.346,3.346,0,0,0,3.308,2.793h14.3a.671.671,0,1,0,0-1.342h-14.3a2.007,2.007,0,0,1-1.984-1.676l-.244-1.439H22.109a4.014,4.014,0,0,0,3.833-2.8l2.091-6.515a.671.671,0,0,0-.639-.876Zm-2.73,6.981a2.676,2.676,0,0,1-2.556,1.864H7.856l-1.274-7.5H26.474Zm0,0" transform="translate(0 0)" fill="#fff" stroke="#fff" stroke-width="0.5"/>
    </g>
  </g>
</svg>
