<svg xmlns="http://www.w3.org/2000/svg" width="52" height="51" viewBox="0 0 52 51">
  <g id="bakery" transform="translate(-198 -361)">
    <rect id="Rectangle_1283" data-name="Rectangle 1283" width="52" height="51" transform="translate(198 361)" fill="none"/>
    <g id="piece-of-cake" transform="translate(199.001 361)" opacity="0.5">
      <g id="Group_2047" data-name="Group 2047" transform="translate(-0.001)">
        <path id="Path_2319" data-name="Path 2319" d="M50.985,9.279a.811.811,0,0,0,0-.088.8.8,0,0,0-.035-.091.933.933,0,0,0-.244-.382.838.838,0,0,0-.134-.09.815.815,0,0,0-.133-.07.851.851,0,0,0-.178-.036.808.808,0,0,0-.11-.022c-.009,0-.017,0-.025.005s-.018,0-.028,0l-29.71,1.855a6.377,6.377,0,0,0-4.243-5.737,3.849,3.849,0,0,1,.711-1.569A4.287,4.287,0,0,1,20.4,1.7a.85.85,0,0,0,0-1.7,5.882,5.882,0,0,0-4.875,1.99,5.557,5.557,0,0,0-1.049,2.282c-.15-.011-.3-.023-.451-.023A6.379,6.379,0,0,0,7.729,9.665,4.6,4.6,0,0,0,4.674,8.5,4.669,4.669,0,0,0,.19,11.915.833.833,0,0,0,0,12.429V40.912C0,46.474,4.956,51,11.049,51a.807.807,0,0,0,.15-.03.732.732,0,0,0,.448-.01l38.76-12.317c.013,0,.022-.014.034-.019a.812.812,0,0,0,.157-.087.691.691,0,0,0,.358-.492.823.823,0,0,0,.035-.174c0-.013.008-.025.008-.038V9.35C51,9.325,50.987,9.3,50.985,9.279ZM9.8,8.623A4.664,4.664,0,0,1,14.024,5.95c.091,0,.18.008.269.014a8.984,8.984,0,0,0,.177,1.876.85.85,0,0,0,.828.66.833.833,0,0,0,.191-.022.85.85,0,0,0,.638-1.018h0A7.363,7.363,0,0,1,16.005,6.4,4.664,4.664,0,1,1,9.8,8.623Zm.4,40.643c-4.759-.387-8.5-3.986-8.5-8.354V17.95a11.3,11.3,0,0,0,8.5,4.968Zm.734-28.022a9.239,9.239,0,0,1-9.212-8.426c.011-.075.021-.151.039-.233A2.974,2.974,0,0,1,7.5,12.234a.835.835,0,0,0,.527.522,6.366,6.366,0,0,0,12.2-.686l23.3-1.455-19.14,6.24c-.012,0-.02.014-.032.018a.819.819,0,0,0-.155.088.682.682,0,0,0-.357.491.813.813,0,0,0-.036.176c0,.012-.007.023-.007.035V22.1a.85.85,0,0,1-1.7,0V18.776a.85.85,0,1,0-1.7,0V39.95a.85.85,0,1,1-1.7,0V19.881a1.621,1.621,0,0,1-.042-.264c0-.012-.013-.02-.018-.031a.819.819,0,0,0-.086-.153.488.488,0,0,0-.2-.221.5.5,0,0,0-.276-.135.816.816,0,0,0-.191-.039c-.012,0-.021-.007-.033-.007a.8.8,0,0,0-.131.026.805.805,0,0,0-.133.016ZM11.9,36.229V32.916L17,31.252v3.313Zm5.1.123v3.314l-5.1,1.662V38.016Zm-5.1-5.223V22.716L17,21.052v8.413Zm37.4,6.083L11.9,49.1V43.117l5.508-1.795A2.546,2.546,0,0,0,22.1,39.95v-.156l27.2-8.872Zm0-8.079L22.1,38V34.693l27.2-8.872Zm0-5.1L22.1,32.9V29.593l27.2-8.872Zm0-5.1L22.1,27.8V24.493a2.52,2.52,0,0,0,.85.157A2.553,2.553,0,0,0,25.5,22.1V18.281l23.8-7.759v8.411Z" transform="translate(0.001)"/>
      </g>
    </g>
  </g>
</svg>
