<svg xmlns="http://www.w3.org/2000/svg" width="51.891" height="51.897" viewBox="0 0 51.891 51.897">
  <g id="beverages" transform="translate(-16 -15.984)" opacity="0.5">
    <path id="Path_2337" data-name="Path 2337" d="M85.984,326.176l-1.684.394a17.815,17.815,0,0,0,.53,1.819l1.633-.572a16.082,16.082,0,0,1-.478-1.641Z" transform="translate(-60.916 -276.656)"/>
    <path id="Path_2338" data-name="Path 2338" d="M96.523,357.91a17.6,17.6,0,0,0,2.762,4.073l1.283-1.161a15.871,15.871,0,0,1-2.49-3.672Z" transform="translate(-71.817 -304.281)"/>
    <path id="Path_2339" data-name="Path 2339" d="M66,27.372,67.037,25.6a5.244,5.244,0,0,0-1.795-7.114l-2.935-1.77a5.044,5.044,0,0,0-3.879-.574,5.1,5.1,0,0,0-3.16,2.392L53.6,21.382l-.906-.371a.865.865,0,0,0-1.081.375l-4.274,7.573h-2.8A11.259,11.259,0,0,0,33.332,39.338H33.3a20.947,20.947,0,0,0-6.206.9,13.6,13.6,0,0,0-5.318,2.922,4.177,4.177,0,0,1-.585-2.1c0-1.763,1.2-3.455,3.38-4.763A17.218,17.218,0,0,1,33.3,34.149v-1.73a18.965,18.965,0,0,0-9.619,2.4c-2.721,1.633-4.22,3.851-4.22,6.246v4.843a21.008,21.008,0,0,0,6.346,15.051h-8.94a.865.865,0,0,0-.865.865,6.061,6.061,0,0,0,6.054,6.054H44.543A6.061,6.061,0,0,0,50.6,61.827a.865.865,0,0,0-.865-.865H40.107A20.985,20.985,0,0,0,42,59.042a8.3,8.3,0,0,0,1.771.188A11.811,11.811,0,0,0,54.783,45.945a7.709,7.709,0,0,0-7.918-6.606,8.025,8.025,0,0,0-3.138-3.986,4.3,4.3,0,0,1,1.68-.34h4.787l3.3,3.928a7.185,7.185,0,0,0,12.056-.6l1.334-2.284A7.429,7.429,0,0,0,66,27.372Zm-9.241-7.965a3.38,3.38,0,0,1,2.094-1.588,3.326,3.326,0,0,1,2.558.379l2.935,1.77a3.508,3.508,0,0,1,1.194,4.76l-.868,1.487c-.1-.071-1.312-.795-1.458-.87l.883-1.513a1.744,1.744,0,0,0-.6-2.366L60.567,19.7A1.712,1.712,0,0,0,58.2,20.3l-1.395,2.389-1.587-.649Zm5.845,3.552-.993,1.7-3.189-1.305,1.265-2.165,2.917,1.757A.014.014,0,0,1,62.607,22.959Zm-35,18.935a19.494,19.494,0,0,1,5.694-.826v3.46h1.73V40.2a9.525,9.525,0,0,1,9.514-9.514h1.824l-1.478,2.618a6.062,6.062,0,0,0-5.536,6.031v5.19h1.73V42.716a10.2,10.2,0,0,1,2.661,1.812c-2.178,2.12-6.168,3.46-10.446,3.46s-8.267-1.34-10.446-3.46A11.914,11.914,0,0,1,27.6,41.894ZM44.543,66.151H22.054a4.332,4.332,0,0,1-4.238-3.46H48.781A4.332,4.332,0,0,1,44.543,66.151Zm-7.2-5.19H28.409a19.292,19.292,0,0,1-7.22-15.051V45.29c2.423,2.737,7.027,4.427,12.109,4.427s9.687-1.691,12.109-4.427a19.3,19.3,0,0,1-8.06,15.671Zm9.79-15.688v-.706a2.522,2.522,0,0,1,1.372.424,2.74,2.74,0,0,1,1.058,1.827A6.178,6.178,0,0,1,48.344,51.3a6.845,6.845,0,0,1-2.962,2.377A21.1,21.1,0,0,0,47.137,45.274Zm3.426-3.142a6.112,6.112,0,0,1,2.515,4.108,9.543,9.543,0,0,1-1.823,7.08,9.37,9.37,0,0,1-8.025,4.16A21.108,21.108,0,0,0,44.37,55.7a8.413,8.413,0,0,0,6.9-9.178,4.382,4.382,0,0,0-1.778-2.954,4.234,4.234,0,0,0-2.357-.732V41.069A6.11,6.11,0,0,1,50.563,42.132ZM45.349,40.4a3.793,3.793,0,0,1,.059.669,4.189,4.189,0,0,1-.585,2.1,12.659,12.659,0,0,0-3.739-2.347v-1.48a4.307,4.307,0,0,1,1.133-2.914A6.261,6.261,0,0,1,45.349,40.4Zm20.043-5.218-1.334,2.284a5.475,5.475,0,0,1-3.391,2.57,5.393,5.393,0,0,1-4.146-.615A5.518,5.518,0,0,1,54.88,37.9c-.013-.018-.026-.035-.04-.052l-3.581-4.26a.865.865,0,0,0-.662-.308H46.889L52.749,22.9,62,26.688c.259.106,1.458.8,1.458.8a5.668,5.668,0,0,1,1.931,7.69Z"/>
  </g>
</svg>
