<svg xmlns="http://www.w3.org/2000/svg" width="52" height="51" viewBox="0 0 52 51">
  <g id="veggies" transform="translate(-26 -211)" opacity="0.5">
    <rect id="Rectangle_1280" data-name="Rectangle 1280" width="52" height="51" transform="translate(26 211)" fill="none"/>
    <g id="broccoli" transform="translate(26 208.393)">
      <g id="Group_2043" data-name="Group 2043" transform="translate(0 2.607)" opacity="0.5">
        <path id="Path_2313" data-name="Path 2313" d="M51.273,21.964a5.619,5.619,0,0,0-.876-2.209A5.622,5.622,0,0,0,46.3,13.9a5.49,5.49,0,0,0-1.162-.187,5.547,5.547,0,0,0-6.559-3.654,7.168,7.168,0,0,0-6.559-4.338,7.06,7.06,0,0,0-1.705.225A7.205,7.205,0,0,0,17.2,8.277a7.187,7.187,0,0,0-3.233,2.483,5.622,5.622,0,0,0-3.945,1.79,5.622,5.622,0,0,0-5.06,2.08A5.622,5.622,0,0,0,2.788,25.068l.356.169a5.622,5.622,0,0,0,7.721,4.891,5.273,5.273,0,0,0,.881.618,5.619,5.619,0,0,0,1.527.572c.871.89,6.137,6.8,6.119,19.9a1.059,1.059,0,0,0,.834,1.04,52.073,52.073,0,0,0,6.784,1.087,49.129,49.129,0,0,0,6.559-1.087,1.059,1.059,0,0,0,.825-1.171c0-.15-1.874-14.673,5.21-21.176a3.944,3.944,0,0,0,.422-.262,5.24,5.24,0,0,0,1,.394,5.622,5.622,0,0,0,5.622-1.612A5.622,5.622,0,0,0,51.273,21.964ZM14.079,15.557A1.059,1.059,0,0,0,14.6,14.7a5.088,5.088,0,0,1,3.748-4.6,1.059,1.059,0,0,0,.721-.89,5.088,5.088,0,0,1,9.689-1.537,1.059,1.059,0,0,0,1.359.543,5.06,5.06,0,0,1,6.934,4.207,1.059,1.059,0,0,0,.44.75,5.079,5.079,0,0,1-1.218,8.939,1.059,1.059,0,0,0-.618.59,5.1,5.1,0,0,1-4.685,3.167,5.041,5.041,0,0,1-1.705-.319,1.059,1.059,0,0,0-1.274.468,5.05,5.05,0,0,1-4.423,2.6,5.116,5.116,0,0,1-4.685-3.055,1.059,1.059,0,0,0-.937-.637h-.216a5.135,5.135,0,0,1-6.156-4.975A5.06,5.06,0,0,1,14.079,15.557Zm-1.34,13.334a3.446,3.446,0,0,1-.937-.759,1.059,1.059,0,0,0-1.321-.178,3.448,3.448,0,0,1-3.5.066,3.486,3.486,0,0,1-1.762-3.373,1.059,1.059,0,0,0-.74-1.115,3.561,3.561,0,0,1-.665-.29A3.476,3.476,0,0,1,5.468,16.71a1.059,1.059,0,0,0,.871-.487,3.467,3.467,0,0,1,3.748-1.49,1.059,1.059,0,0,0,1.115-.4,3.514,3.514,0,0,1,1.509-1.181,7.2,7.2,0,0,0-.187.881,7.149,7.149,0,0,0-3.13,5.931A7.262,7.262,0,0,0,16.682,27.2q.315,0,.629-.03a7.228,7.228,0,0,0,.937,1.237,3.6,3.6,0,0,1-.834,0,1.05,1.05,0,0,0-.825.216A3.476,3.476,0,0,1,12.739,28.891Zm19.452,21.5a39.356,39.356,0,0,1-5.21.834,42.785,42.785,0,0,1-5.5-.862c-.159-10.494-3.523-16.472-5.51-19.115a5.621,5.621,0,0,0,1.6-.731,5.7,5.7,0,0,0,1.958-.2,12.724,12.724,0,0,1,2.811,6.381,1.059,1.059,0,0,0,1.049.937h.122a1.059,1.059,0,0,0,.939-1.167l0-.014a14.2,14.2,0,0,0-2.118-5.847,7.066,7.066,0,0,0,7.046-2.82,20.165,20.165,0,0,0-1.527,6.718,1.059,1.059,0,0,0,1.03,1.087h.01a1.059,1.059,0,0,0,1.087-1.03c0-.019,0-.038,0-.057a19.178,19.178,0,0,1,1.687-6.559h.216a5.622,5.622,0,0,0,3.336,2.586,5.438,5.438,0,0,0,.937.159C31.46,37.324,31.891,47.237,32.191,50.395ZM49.057,23.84a3.5,3.5,0,0,1-3.092,2.53,1.059,1.059,0,0,0-.75.4,3.429,3.429,0,0,1-4.741.7,1.059,1.059,0,0,0-1.359.112,3.42,3.42,0,0,1-4.837-.025q-.112-.113-.214-.237a7.271,7.271,0,0,0,3.429-3.383,7.187,7.187,0,0,0,1.986-11.919,3.411,3.411,0,0,1,1.284.1,3.5,3.5,0,0,1,2.5,2.811,1.059,1.059,0,0,0,1.162.89,3.448,3.448,0,0,1,3.748,4.029,1.059,1.059,0,0,0,.225.843A3.5,3.5,0,0,1,49.057,23.84Z" transform="translate(0 -2.607)"/>
      </g>
    </g>
  </g>
</svg>
