<svg xmlns="http://www.w3.org/2000/svg" width="42.438" height="53.755" viewBox="0 0 42.438 53.755">
  <path id="cosmetics" d="M0,20.747V52.812a.943.943,0,0,0,.943.943H10.3c.014,0,.025-.007.039-.007s.025.007.04.007H29.235a.89.89,0,0,0,.2-.04.92.92,0,0,0,.2.04h8.094a.943.943,0,0,0,.937-.833L40.545,36.89a.944.944,0,0,0-.826-1.047.989.989,0,0,0-.11-.007V28.292a.914.914,0,0,0-.019-.189l-.924-4.621V20.747h1.886a1.886,1.886,0,0,0,1.886-1.886V14.146a1.886,1.886,0,0,0-1.886-1.886H38.4a1.879,1.879,0,0,0-1.624-.943H34.894A1.886,1.886,0,0,0,33.007,13.2V23.577a.943.943,0,0,0,.019.189l.924,4.621v7.45H32.064V30.178a.939.939,0,0,0-.067-.35l-.007-.017-1.813-4.531V22.634a1.886,1.886,0,0,0-1.886-1.886H26.406a1.886,1.886,0,0,0-1.886,1.886v2.647l-1.811,4.527-.007.017a.949.949,0,0,0-.068.354v5.658h-.943a.944.944,0,0,0-.943.943.99.99,0,0,0,.007.11l.32,2.719H18.861V20.747A8.493,8.493,0,0,0,13.2,12.755V7.544A.943.943,0,0,0,12.26,6.6H10.374V5.658H12.26a.943.943,0,0,0,.943-.943V3.772h3.382l2.553,2.553a.943.943,0,0,0,1.333-1.334L17.642,2.162a.943.943,0,0,0-.667-.276H13.029A2.829,2.829,0,0,0,10.374,0H8.488A2.83,2.83,0,0,0,5.658,2.829V4.715a.943.943,0,0,0,.943.943H8.488V6.6H6.6a.943.943,0,0,0-.943.943v5.211A8.493,8.493,0,0,0,0,20.747Zm38.666-6.6h1.886v4.715H38.666ZM1.886,25.463H16.975v9.431H1.886Zm8.488,20.748a.943.943,0,0,0-.943.943v4.716H1.886V36.78H16.975v2.829H14.617a4.244,4.244,0,0,0-3.525,6.6Zm17.918,5.658H11.317V48.1H28.292Zm6.6-38.666H36.78V23.577a.943.943,0,0,0,.019.189l.924,4.621v7.45H35.837V28.292a.914.914,0,0,0-.019-.189l-.924-4.621Zm-8.488,9.431h1.886V24.52H26.406Zm-.3,3.772h2.5l1.132,2.829H24.97ZM24.52,31.121h5.658v4.715H24.52Zm14.028,6.6L36.884,51.869H30.178V47.153a.943.943,0,0,0-.943-.943H27.573a4.244,4.244,0,0,0-3.525-6.6H22.973l-.221-1.886Zm-14.5,3.772a2.358,2.358,0,1,1,0,4.716H14.617a2.358,2.358,0,0,1,0-4.716ZM7.545,3.772V2.829a.943.943,0,0,1,.943-.943h1.886a.943.943,0,0,1,.943.943v.943Zm0,4.716h3.772V12.26H7.545Zm.943,5.658h1.886a6.609,6.609,0,0,1,6.6,6.6v2.829H1.886V20.747a6.61,6.61,0,0,1,6.6-6.6Zm0,0" transform="translate(0 0)" opacity="0.5"/>
</svg>
