<svg xmlns="http://www.w3.org/2000/svg" width="52" height="51" viewBox="0 0 52 51">
  <g id="dairy" transform="translate(-217 -362)">
    <rect id="Rectangle_1284" data-name="Rectangle 1284" width="52" height="51" transform="translate(217 362)" fill="none"/>
    <g id="Outline" transform="translate(151 346)" opacity="0.5">
      <path id="Path_2320" data-name="Path 2320" d="M73.7,62.75V42.35a19.742,19.742,0,0,1,1.606-7.822l1.751-4.086c.149-.348.291-.705.424-1.067a16.088,16.088,0,0,1,6.31.127,17.583,17.583,0,0,0,6.651.2c.1.249.2.5.3.743l1.751,4.086,1.563-.669-1.751-4.086c-.186-.436-.358-.878-.51-1.317A19.821,19.821,0,0,1,90.718,22.8h.832a.85.85,0,0,0,.85-.85v-3.4A2.553,2.553,0,0,0,89.85,16H77.95a2.553,2.553,0,0,0-2.55,2.55v3.4a.85.85,0,0,0,.85.85h.832a19.822,19.822,0,0,1-1.043,5.557c-.164.481-.347.956-.544,1.415l-1.751,4.086A21.435,21.435,0,0,0,72,42.35v20.4A4.255,4.255,0,0,0,76.25,67h13.6V65.3H76.25A2.553,2.553,0,0,1,73.7,62.75Zm3.4-44.2a.851.851,0,0,1,.85-.85h11.9a.851.851,0,0,1,.85.85V21.1H77.1ZM89.017,22.8a21.49,21.49,0,0,0,.869,5.263,15.892,15.892,0,0,1-5.727-.22,17.787,17.787,0,0,0-6.1-.275,21.507,21.507,0,0,0,.728-4.768Z"/>
      <rect id="Rectangle_1285" data-name="Rectangle 1285" width="2.328" height="1.7" transform="translate(77.589 33.515) rotate(-66.802)"/>
      <path id="Path_2321" data-name="Path 2321" d="M104,203.843v3.4h1.7v-3.4a16.362,16.362,0,0,1,1.331-6.482l-1.562-.669A18.052,18.052,0,0,0,104,203.843Z" transform="translate(-28.6 -161.493)"/>
      <path id="Path_2322" data-name="Path 2322" d="M254.1,204.25c0-2.79-5.559-4.25-11.05-4.25S232,201.46,232,204.25a2.045,2.045,0,0,0,.024.306l2.53,26.129a.85.85,0,0,0,.846.765h15.3a.85.85,0,0,0,.846-.765l2.53-26.129A2.044,2.044,0,0,0,254.1,204.25Zm-2.317,6.959-.43.143a13.475,13.475,0,0,1-8.174.124,15.223,15.223,0,0,0-8.759,0l-.077.023-.419-4.746c2.1,1.153,5.625,1.746,9.126,1.746s7.028-.593,9.126-1.746ZM243.05,201.7c6.012,0,9.306,1.663,9.348,2.533l-.01.106c-.212.887-3.49,2.461-9.338,2.461s-9.127-1.574-9.338-2.461l-.01-.106C233.744,203.363,237.039,201.7,243.05,201.7Zm6.881,28.05H236.169L234.5,213.227l.4-.121a13.581,13.581,0,0,1,7.782,0,15.161,15.161,0,0,0,8.913-.047Z" transform="translate(-143 -164.45)"/>
      <rect id="Rectangle_1286" data-name="Rectangle 1286" width="1.7" height="1.811" transform="matrix(0.996, -0.088, 0.088, 0.996, 93.383, 50.821)"/>
      <rect id="Rectangle_1287" data-name="Rectangle 1287" width="1.7" height="6.833" transform="matrix(0.995, -0.099, 0.099, 0.995, 93.693, 54.334)"/>
    </g>
  </g>
</svg>
