<svg xmlns="http://www.w3.org/2000/svg" width="45.555" height="50.62" viewBox="0 0 45.555 50.62">
  <g id="frozen" transform="translate(-39.97 -15.996)" opacity="0.5">
    <path id="Path_2345" data-name="Path 2345" d="M72.032,38.775h1.687v1.687H72.032Zm2.531,3.375H76.25V40.463H74.563ZM51.677,64.929H57.69v1.687H50.941a.844.844,0,0,1-.769-.5,3.367,3.367,0,0,1-4.293-.648,3.375,3.375,0,1,1,0-4.457A3.373,3.373,0,0,1,51.6,64.345Zm-6.642-1.687a1.687,1.687,0,1,0-1.687,1.687A1.687,1.687,0,0,0,45.035,63.241Zm5.062,0a1.687,1.687,0,1,0-1.687,1.687A1.687,1.687,0,0,0,50.1,63.241ZM51.44,50.7l.264,1.931,1.672-.228-.264-1.931Zm3.282,11.583L53.661,54.5l-1.672.229,1.061,7.781ZM69.5,57.336v8.437a.844.844,0,0,1-.844.844H60.221a.844.844,0,0,1-.844-.844V64.537a8.045,8.045,0,0,1,8.045-8.045h1.236A.844.844,0,0,1,69.5,57.336Zm-1.687.844h-.392a6.357,6.357,0,0,0-6.357,6.357v.392h6.749ZM63.6,64.085h1.687V62.4H63.6Zm1.687-2.531H66.97V59.867H65.283ZM83.669,65.3l-.326.255a5.019,5.019,0,0,1-3.079,1.056H71.188V64.929h1.537a3.928,3.928,0,0,1-.272-.453,3.815,3.815,0,0,1,.321-4.009l2.042-2.794,1.312-9.618H49.376l1.365,10.01-1.672.228-1.4-10.238h-.107a2.531,2.531,0,0,1-.844-4.917v-.021a4.942,4.942,0,0,1,.521-2.209l2.187-4.376a3.575,3.575,0,0,1,6.394,0l.722,1.444a3.371,3.371,0,0,1,2.377,5.017h2.6a3.375,3.375,0,1,1,5.841,0H69.5V37.088H58.534V35.4h3.829a3.375,3.375,0,1,1,5.841,0h1.3a.844.844,0,0,1,.844-.844H71.58a8.073,8.073,0,0,1,.819.041,3.374,3.374,0,0,0-.21-3.769c-.03-.038-.065-.082-.1-.126a3.372,3.372,0,0,0-1.956-1.149.84.84,0,0,1-.187-.059H58.534V27.808H69.89a3.374,3.374,0,0,0-2.92-5.062H63.6V21.059h2.447a4.222,4.222,0,0,0-4.134-3.375,4.28,4.28,0,0,0-.432.022,4.173,4.173,0,0,1,.213,2.583,3.219,3.219,0,0,1-3.156,2.457,3.377,3.377,0,0,0-3.316,2.748,3.413,3.413,0,0,0-.058.626,3.353,3.353,0,0,0,.722,2.084.844.844,0,0,1-.507,1.35,3.375,3.375,0,0,0-2.744,3.252v.018c0,.015,0,.031,0,.046a3.424,3.424,0,0,0,.025.416l-1.676.206c-.014-.118-.024-.237-.03-.356l-3.993-4.184a.844.844,0,0,1,0-1.165l.865-.906a7.865,7.865,0,0,1,5.651-2.448c.095,0,.191,0,.286.006a5.068,5.068,0,0,1,4.776-3.381A1.556,1.556,0,0,0,60.048,19.9a2.513,2.513,0,0,0,.067-.579,2.478,2.478,0,0,0-.6-1.616.844.844,0,0,1,.348-1.342,5.909,5.909,0,0,1,7.9,4.759,5.015,5.015,0,0,1,1.569.523,4.4,4.4,0,0,1,5.293.7l1.184,1.183a4.388,4.388,0,0,1-1.692,7.26,5.058,5.058,0,0,1-.008,4.175A8.05,8.05,0,0,1,79.625,42.6V43.64a2.529,2.529,0,0,1-1.687,4.415H77.83l-1.023,7.5c.036-.022.07-.045.107-.066a5,5,0,0,1,6.766,1.66l1.142,1.861A4.8,4.8,0,0,1,83.669,65.3ZM53.94,28.247q-.1-.217-.18-.443a5.039,5.039,0,0,1-.288-1.683,6.087,6.087,0,0,0-4.431,1.926l-.309.323,2.549,2.67a5.085,5.085,0,0,1,2.659-2.794ZM73.126,29.34l.433-.144a2.7,2.7,0,0,0,1.056-4.475l-1.183-1.183a2.708,2.708,0,0,0-2.609-.7,5.059,5.059,0,0,1,.741,5.407A5.078,5.078,0,0,1,73.126,29.34ZM65.283,35.4A1.687,1.687,0,1,0,63.6,33.713,1.687,1.687,0,0,0,65.283,35.4Zm5.906,7.593h6.749V42.6a6.357,6.357,0,0,0-6.357-6.357h-.392Zm-6.749,0a1.687,1.687,0,1,0-1.687-1.687A1.687,1.687,0,0,0,64.439,42.994ZM56,39.619a1.687,1.687,0,1,0,1.687,1.687A1.687,1.687,0,0,0,56,39.619ZM48.5,42.367a3.261,3.261,0,0,0-.084.626h4.669a3.37,3.37,0,0,1,1.675-4.823l-.442-.884a1.888,1.888,0,0,0-3.376,0l-2.187,4.375A3.217,3.217,0,0,0,48.5,42.367Zm29.44,4a.844.844,0,1,0,0-1.687H47.566a.844.844,0,0,0,0,1.687ZM83.384,59.9l-1.142-1.861a3.272,3.272,0,0,0-2.8-1.542,3.308,3.308,0,0,0-1.678.455,3.2,3.2,0,0,0-.971.876l-2.66,3.639a2.137,2.137,0,0,0-.181,2.245,2.262,2.262,0,0,0,2.032,1.222h4.278a3.324,3.324,0,0,0,2.039-.7l.326-.255a3.114,3.114,0,0,0,.754-4.081Z"/>
  </g>
</svg>
