<svg xmlns="http://www.w3.org/2000/svg" width="52" height="51" viewBox="0 0 52 51">
  <g id="fruits" transform="translate(-58 -361)">
    <rect id="Rectangle_1281" data-name="Rectangle 1281" width="52" height="51" transform="translate(58 361)" fill="none"/>
    <g id="grape" transform="translate(5.644 361)">
      <g id="Group_2045" data-name="Group 2045" transform="translate(58.356 0)">
        <path id="Path_2314" data-name="Path 2314" d="M97.712,21.976a8.077,8.077,0,0,0-8.127-8.127,8.265,8.265,0,0,0-5.8,2.438,7.448,7.448,0,0,0-4.528-2.322,8.136,8.136,0,0,1,8.01-7.082,1.1,1.1,0,0,0,1.161-1.161,1.1,1.1,0,0,0-1.161-1.161,10.5,10.5,0,0,0-7.2,2.9A8.362,8.362,0,0,0,77.511,2.7,9.887,9.887,0,0,0,69.733.035c-.58,0-.929.464-1.045,1.045a9.364,9.364,0,0,0,2.67,7.778A18.291,18.291,0,0,0,73.1,10.251,1.25,1.25,0,0,0,74.725,9.9a1.25,1.25,0,0,0-.348-1.625A3.628,3.628,0,0,1,73.1,7.233a6.572,6.572,0,0,1-2.09-4.992A6.92,6.92,0,0,1,76,4.214a7.272,7.272,0,0,1,1.974,6.037.426.426,0,0,1-.116.348,1.961,1.961,0,0,1-.348.7,10.055,10.055,0,0,0-.7,3.715,1.1,1.1,0,0,0,1.161,1.161,5.8,5.8,0,1,1-5.8,5.8,5.573,5.573,0,0,1,1.974-4.3,1.152,1.152,0,0,0-1.509-1.741l-.348.348a8.265,8.265,0,0,0-5.8-2.438,8.127,8.127,0,1,0,0,16.253,6.811,6.811,0,0,0,2.67-.464,1.175,1.175,0,0,0-.813-2.206,5.9,5.9,0,0,1-1.974.348,5.8,5.8,0,1,1,4.412-9.52,8.377,8.377,0,0,0-.929,3.715A8.141,8.141,0,0,0,77.511,30.1a5.2,5.2,0,0,1,.464,2.322,5.782,5.782,0,0,1-11.493.929,1.184,1.184,0,0,0-2.322.464,8.074,8.074,0,0,0,6.153,6.5,6.248,6.248,0,0,0-.464,2.554A8.077,8.077,0,0,0,77.976,51a8.207,8.207,0,0,0,8.01-6.733,1.184,1.184,0,0,0-2.322-.464,5.782,5.782,0,0,1-11.493-.929,7.5,7.5,0,0,1,.464-2.322A8.141,8.141,0,0,0,80.3,32.425a6.247,6.247,0,0,0-.464-2.554A8.094,8.094,0,0,0,86.1,21.976a7.658,7.658,0,0,0-.929-3.715,5.789,5.789,0,1,1,4.412,9.52,5.9,5.9,0,0,1-1.974-.348,1.175,1.175,0,0,0-.813,2.206A12.337,12.337,0,0,0,89,30.1a5.2,5.2,0,0,1,.464,2.322,5.748,5.748,0,0,1-5.8,5.8,5.9,5.9,0,0,1-1.974-.348,1.175,1.175,0,1,0-.813,2.206,7.2,7.2,0,0,0,2.67.464,8.077,8.077,0,0,0,8.127-8.127,6.247,6.247,0,0,0-.464-2.554A8.064,8.064,0,0,0,97.712,21.976Z" transform="translate(-58.356 0)"/>
      </g>
    </g>
  </g>
</svg>
