<svg xmlns="http://www.w3.org/2000/svg" width="52" height="51" viewBox="0 0 52 51">
  <g id="grocery" transform="translate(-128 -361)" opacity="0.5">
    <rect id="Rectangle_1282" data-name="Rectangle 1282" width="52" height="51" transform="translate(128 361)" fill="none"/>
    <g id="grocery-2" data-name="grocery" transform="translate(130 361.001)">
      <path id="Path_2315" data-name="Path 2315" d="M367.84,70.046l1.617-.526,1.66,5.1-1.617.526Zm0,0" transform="translate(-328.757 -62.134)"/>
      <path id="Path_2316" data-name="Path 2316" d="M344.391,126.053l1.617-.526,1.661,5.1-1.617.527Zm0,0" transform="translate(-307.799 -112.191)"/>
      <path id="Path_2317" data-name="Path 2317" d="M53.133,16.342a4.632,4.632,0,0,0,1.044,3.616L55.4,21.5V35.7h1.7V22.838l1.228.818a.851.851,0,0,0,.944,0l2.078-1.387,2.078,1.385a.851.851,0,0,0,.944,0l2.078-1.385,2.078,1.385a.851.851,0,0,0,.944,0l2.078-1.385,2.078,1.385a.851.851,0,0,0,.944,0l2.078-1.385,1.7,1.133V49.3h-18.7V51h23.8a4.255,4.255,0,0,0,4.25-4.25v-25.5a.843.843,0,0,0-.183-.514L92.433,7.658a5.725,5.725,0,0,0-.647-5.27A5.431,5.431,0,0,0,87.272,0a5.565,5.565,0,0,0-5.163,3.622L80.776,7.169,79.2,5.6V2.549a.85.85,0,0,0-.85-.85H69a.85.85,0,0,0-.85.85V4.007a2.655,2.655,0,0,0-3.428-.116V2.549a2.519,2.519,0,1,0-5.039,0V3.892a2.6,2.6,0,0,0-3.518.19,2.693,2.693,0,0,0-.015,3.736l.791.817a2.6,2.6,0,0,0-.772.541l-.005,0-.008.009a2.618,2.618,0,0,0-.485.694l-.969-1.789-1.5.809,2.2,4.057c-.1.056-.2.11-.291.174-.035.024-.066.051-.1.075l-3.289-3.031-1.153,1.25,3.267,3.012a4.638,4.638,0,0,0-.712,1.9Zm17.949,4.2L69,21.929l-2.078-1.385a.851.851,0,0,0-.944,0l-2.059,1.373c0-.085-.02-.159-.02-.241a3.815,3.815,0,0,1,7.425-1.242.859.859,0,0,0-.247.108Zm2.172.819-.016-.011A5.517,5.517,0,0,0,65.6,16.574V11.049h7.65ZM86,46.749a2.55,2.55,0,0,1-2.55,2.55h-3.4V23.4l1.7-1.135,2.078,1.385a.851.851,0,0,0,.944,0L86,22.838ZM83.7,4.218A3.858,3.858,0,0,1,87.272,1.7a3.753,3.753,0,0,1,3.117,1.652,4.027,4.027,0,0,1,.454,3.709L85.579,21.079l-1.275.85-2.078-1.385a.851.851,0,0,0-.944,0L79.2,21.929l-1.724-1.15Zm-3.58,4.7L75.609,20.924l-.655.437V10.551l3.4-3.4ZM69.854,3.4H77.5V5.1h-7.65Zm-.5,3.4H76.3l-2.55,2.55H66.806ZM57.382,5.274a.9.9,0,0,1,1.3,0l1.248,1.275a.85.85,0,0,0,1.457-.6v-3.4a.82.82,0,1,1,1.639,0v3.4a.85.85,0,0,0,1.456.6l1.252-1.275a.92.92,0,0,1,1.292,0,.973.973,0,0,1,0,1.36l-2.5,2.55.025.026-.394.394a.844.844,0,0,0-.164.242c-.012.026-.019.053-.028.08a.851.851,0,0,0-.046.225c0,.019-.01.034-.01.053v7.5a5.446,5.446,0,0,0-.537.6l-1.606-3.417a4.589,4.589,0,0,0-2.941-2.38,4.481,4.481,0,0,0-.909-.138l-.218-.255c-.17-.195-.3-.347-.319-.368a.984.984,0,0,1-.255-.865.943.943,0,0,1,.235-.474l.015-.015.021-.023a.911.911,0,0,1,1.143-.107.85.85,0,0,0,1.086-1.295L57.376,6.637a.982.982,0,0,1,.006-1.363Zm-2.565,11.3a2.925,2.925,0,0,1,1.255-2.029,2.867,2.867,0,0,1,4.165,1.08L62.4,20.239a5.443,5.443,0,0,0-.127.6l-.448-.3a.85.85,0,0,0-.943,0L58.8,21.929l-1.885-1.258-.182-.228,2.191-1.694L57.888,17.4l-2.21,1.709-.189-.235a2.944,2.944,0,0,1-.672-2.3Zm0,0" transform="translate(-45.204 0)"/>
      <path id="Path_2318" data-name="Path 2318" d="M1.815,334.88A3.814,3.814,0,0,0,5.245,337a3.863,3.863,0,0,0,1.715-.4l.689-.345.69.345a3.859,3.859,0,0,0,1.715.4,3.815,3.815,0,0,0,3.431-2.12l.3-.595a14.461,14.461,0,0,0,1.518-6.429,4.439,4.439,0,0,0-6.8-3.777v-.68A3.4,3.4,0,0,0,5.1,320v1.7a1.7,1.7,0,0,1,1.7,1.7v.68A4.439,4.439,0,0,0,0,327.857a14.457,14.457,0,0,0,1.518,6.43Zm2.642-9.78a2.738,2.738,0,0,1,1.949.808l.643.643a.85.85,0,0,0,1.2,0l.643-.643a2.756,2.756,0,0,1,4.706,1.949,12.732,12.732,0,0,1-1.339,5.67l-.3.6a2.125,2.125,0,0,1-1.91,1.178,2.148,2.148,0,0,1-.955-.225l-1.07-.535a.85.85,0,0,0-.76,0l-1.07.535a2.15,2.15,0,0,1-.955.225,2.125,2.125,0,0,1-1.91-1.181l-.3-.595A12.733,12.733,0,0,1,1.7,327.857,2.761,2.761,0,0,1,4.457,325.1Zm0,0" transform="translate(0 -286.001)"/>
    </g>
  </g>
</svg>
