<svg xmlns="http://www.w3.org/2000/svg" width="51.98" height="29.057" viewBox="0 0 51.98 29.057">
  <g id="household" transform="translate(0 -112.894)" opacity="0.5">
    <g id="Group_2199" data-name="Group 2199" transform="translate(0 112.894)">
      <path id="Path_2346" data-name="Path 2346" d="M49.4,120.847H48.371v-3.838a4.119,4.119,0,0,0-4.115-4.115H29.343a4.112,4.112,0,0,0-3.353,1.735,4.111,4.111,0,0,0-3.353-1.735H13.268a.761.761,0,1,0,0,1.523h9.369a2.6,2.6,0,0,1,2.592,2.592v7.615l-.049-.045a4.979,4.979,0,0,0-3.361-1.327H9.136A2.611,2.611,0,0,0,7.41,120.99a2.531,2.531,0,0,0-.845-.143H5.132v-3.838a2.6,2.6,0,0,1,2.592-2.592h2.5a.761.761,0,1,0,0-1.523h-2.5a4.119,4.119,0,0,0-4.115,4.115v3.838H2.576A2.579,2.579,0,0,0,0,123.423v7.95a5.371,5.371,0,0,0,5.365,5.365h.383l-.834,2.244a2.224,2.224,0,0,0,2.063,2.969H8.2a2.213,2.213,0,0,0,1.756-.873l3.282-4.339h25.5l3.282,4.339a2.213,2.213,0,0,0,1.756.873H45a2.223,2.223,0,0,0,2.063-2.969l-.834-2.244h.383a5.371,5.371,0,0,0,5.365-5.365v-7.95A2.579,2.579,0,0,0,49.4,120.847Zm-22.652-3.838a2.6,2.6,0,0,1,2.592-2.592H44.256a2.6,2.6,0,0,1,2.592,2.592v3.838H45.414a2.637,2.637,0,0,0-2.376,1.582,2.56,2.56,0,0,0-.194.824H30.161a5,5,0,0,0-3.409,1.371v-7.615Zm-17.61,7.767H21.819a3.413,3.413,0,0,1,3.409,3.41v1.083H9.142Zm-.4,15.383a.682.682,0,0,1-.541.269H6.977a.684.684,0,0,1-.636-.915l1.032-2.775H11.33Zm36.26.269H43.778a.682.682,0,0,1-.541-.269l-2.587-3.421h3.958l1.032,2.775A.685.685,0,0,1,45,140.428Zm1.612-5.213H5.365a3.846,3.846,0,0,1-3.842-3.842v-7.95a1.054,1.054,0,0,1,1.053-1.053H6.565a1.054,1.054,0,0,1,1.053,1.053v6.606a.761.761,0,0,0,.761.761H36.347a.761.761,0,1,0,0-1.523h-9.6v-1.083a3.413,3.413,0,0,1,3.409-3.409H42.838v4.492H39.393a.761.761,0,1,0,0,1.523H43.6a.761.761,0,0,0,.761-.761v-6.606a1.054,1.054,0,0,1,1.053-1.053H49.4a1.054,1.054,0,0,1,1.053,1.053v7.95h0A3.846,3.846,0,0,1,46.615,135.215Z" transform="translate(0 -112.894)"/>
    </g>
  </g>
</svg>
